<?xml version="1.0" encoding="iso-8859-1"?>
<!-- Generator: Adobe Illustrator 19.0.0, SVG Export Plug-In . SVG Version: 6.00 Build 0)  -->
<svg version="1.1" id="Layer_1" xmlns="http://www.w3.org/2000/svg" xmlns:xlink="http://www.w3.org/1999/xlink" x="0px" y="0px"
	 viewBox="0 0 512 512" style="enable-background:new 0 0 512 512;" xml:space="preserve">
<g>
	<g>
		<g>
			<path d="M256,0C114.84,0,0,114.84,0,256s114.84,256,256,256c141.158,0,256-114.84,256-256S397.158,0,256,0z M274.732,473.725
				v-28.969c0-10.345-8.387-18.732-18.732-18.732s-18.732,8.387-18.732,18.732v28.969C131.68,464.719,47.281,380.32,38.275,274.732
				h28.969c10.345,0,18.732-8.387,18.732-18.732s-8.387-18.732-18.732-18.732H38.275C47.281,131.68,131.68,47.281,237.268,38.275
				v28.969c0,10.345,8.387,18.732,18.732,18.732s18.732-8.387,18.732-18.732V38.275c105.588,9.007,189.987,93.406,198.993,198.993
				h-28.969c-10.345,0-18.732,8.387-18.732,18.732s8.387,18.732,18.732,18.732h28.969
				C464.719,380.32,380.32,464.719,274.732,473.725z"/>
			<path d="M319.468,237.268h-44.74v-95.422c0-10.345-8.387-18.732-18.732-18.732s-18.732,8.387-18.732,18.732V256
				c0,10.345,8.387,18.732,18.732,18.732h63.473c10.345,0,18.732-8.387,18.732-18.732S329.813,237.268,319.468,237.268z"/>
		</g>
	</g>
</g>
<g>
</g>
<g>
</g>
<g>
</g>
<g>
</g>
<g>
</g>
<g>
</g>
<g>
</g>
<g>
</g>
<g>
</g>
<g>
</g>
<g>
</g>
<g>
</g>
<g>
</g>
<g>
</g>
<g>
</g>
</svg>
